<svg xmlns="http://www.w3.org/2000/svg" enable-background="new 0 0 50 50" viewBox="0 0 50 50" id="gambling">
  <circle cx="25" cy="25" r="24" fill="#E4E4E3"></circle>
  <path fill="#C7C7C7" d="M25.0001 40.9998c-8.8223 0-16-7.1777-16-16s7.1777-16 16-16 16 7.1777 16 16S33.8224 40.9998 25.0001 40.9998zM25.0001 10.9998c-7.7197 0-14 6.2803-14 14s6.2803 14 14 14 14-6.2803 14-14S32.7198 10.9998 25.0001 10.9998zM29.7992 1.4845v2.6899c0 1.1101-.8901 2-2 2h-5.6001c-1.1 0-2-.8899-2-2V1.4845c1.55-.3101 3.16-.48 4.8-.48C26.639 1.0045 28.2491 1.1644 29.7992 1.4845zM29.7992 48.52v-2.6899c0-1.1101-.8901-2-2-2h-5.6001c-1.1 0-2 .8899-2 2V48.52c1.55.3101 3.16.48 4.8.48C26.639 49 28.2491 48.8401 29.7992 48.52zM11.7637 4.9785l1.9021 1.9021c.785.785.7848 2.0436 0 2.8284l-3.9599 3.9599c-.7778.7778-2.0435.785-2.8284 0l-1.9021-1.9021c.8768-1.3153 1.8951-2.5739 3.0547-3.7335C9.1897 6.8737 10.4413 5.8482 11.7637 4.9785zM45.0229 38.2377l-1.9021-1.9021c-.785-.785-2.0436-.7848-2.8284 0l-3.9599 3.9599c-.7778.7778-.785 2.0435 0 2.8284l1.9021 1.9021c1.3153-.8768 2.5739-1.8951 3.7335-3.0548C43.1277 40.8116 44.1531 39.56 45.0229 38.2377zM1.4813 20.2022h2.6899c1.1101 0 2 .8901 2 2v5.6001c0 1.1-.8899 2-2 2H1.4813c-.3101-1.55-.48-3.16-.48-4.8C1.0014 23.3623 1.1613 21.7522 1.4813 20.2022zM48.5169 20.2022H45.827c-1.1101 0-2 .8901-2 2v5.6001c0 1.1.8899 2 2 2h2.6899c.3101-1.55.48-3.16.48-4.8C48.9969 23.3623 48.837 21.7522 48.5169 20.2022zM4.9754 38.2377l1.9021-1.9021c.785-.785 2.0436-.7848 2.8284 0l3.9599 3.9599c.7778.7778.785 2.0435 0 2.8284l-1.9021 1.9021c-1.3153-.8768-2.5739-1.8951-3.7335-3.0548C6.8706 40.8116 5.8451 39.56 4.9754 38.2377zM38.2346 4.9785l-1.9021 1.9021c-.785.785-.7848 2.0436 0 2.8284l3.9599 3.9599c.7778.7778 2.0435.785 2.8284 0l1.9021-1.9021c-.8768-1.3153-1.8951-2.5739-3.0548-3.7335C40.8085 6.8737 39.5569 5.8482 38.2346 4.9785z"></path>
  <path fill="#696967" d="M33.1014,23.0992L25.0022,15l-8.1036,8.0992c-2.233,2.2374-2.233,5.8618,0,8.0992
			c1.9514,1.9514,4.9604,2.1998,7.1824,0.7474l-0.7816,2.7531C23.2571,34.8495,23.37,35,23.5252,35h2.9496
			c0.1553,0,0.2682-0.1505,0.2259-0.301l-0.7822-2.7552c2.2194,1.4548,5.2306,1.2071,7.183-0.7453
			C35.3345,28.9611,35.3345,25.3367,33.1014,23.0992z"></path>
  <path fill="#7F7E7D" d="M25.2582,18.1175c-2.2242,3.0203-4.7537,5.41-5.8224,6.5125c-1.6253,1.6689-1.567,4.0823-0.3254,5.7766
			c-1.8955-1.3836-2.3042-4.3587-0.3711-6.4618C20.0873,22.6379,22.1918,20.3731,25.2582,18.1175z"></path>
</svg>
